<svg id="icon" version="1.1" viewBox="0 0 219.94 198.47" xmlns="http://www.w3.org/2000/svg">
 <g transform="translate(59.972 57.053)">
  <path transform="scale(.26458)" d="m496.6 54.116c-7.0105 7.011-6.3511 18.935 0.83624 27.205 40.345 46.426 64.502 104.74 68.802 166.1 0.76602 10.93 0.76608 28.725 1.4e-4 39.655-4.2996 61.357-28.456 119.68-68.802 166.1-7.1873 8.2706-7.2475 20.793 0.50194 28.542 7.0102 7.0102 19.027 6.4489 26.283-1.7626 47.357-53.596 75.482-121.5 79.894-192.88 0.67597-10.937 0.67597-28.726 0-39.662-4.412-71.384-32.537-139.28-79.894-192.88-7.2555-8.2114-19.872-8.1731-27.621-0.42337z"/>
  <path transform="scale(.26458)" d="m416.42 134.29c-7.0102 7.0102-6.3014 18.916 0.48966 27.51 19.525 24.708 31.811 54.37 35.476 85.648 1.2748 10.879 1.2748 28.719 0 39.598-3.6651 31.278-15.951 60.939-35.476 85.648-6.791 8.5939-6.9007 21.1 0.84853 28.849 7.0105 7.011 19.062 6.4646 26.035-1.9848 26.41-32.001 42.644-71.195 46.598-112.5 1.0438-10.905 1.0437-28.722-1.9e-4 -39.627-3.9534-41.302-20.188-80.495-46.597-112.5-6.9732-8.4494-19.624-8.397-27.373-0.64752z"/>
  <path transform="scale(.26458)" d="m-146.27 54.54c-47.357 53.596-75.482 121.5-79.894 192.88-0.67597 10.937-0.67597 28.726 0 39.662 4.412 71.384 32.537 139.28 79.894 192.88 7.2555 8.2114 19.872 8.1734 27.622 0.42388 7.0102-7.0102 6.3506-18.933-0.83675-27.204-40.346-46.426-64.502-104.75-68.802-166.1-0.76594-10.93-0.76588-28.725 1.4e-4 -39.655 4.3-61.356 28.457-119.68 68.802-166.1 7.1873-8.2705 7.2478-20.793-0.50143-28.543-7.0105-7.011-19.028-6.4503-26.283 1.7611z"/>
  <path transform="scale(.26458)" d="m-65.842 134.94c-26.41 32-42.645 71.194-46.599 112.5-1.044 10.905-1.0441 28.722-1.9e-4 39.627 3.9535 41.303 20.189 80.497 46.599 112.5 6.9733 8.4493 19.624 8.3966 27.373 0.64684 7.0105-7.011 6.3019-18.918-0.48914-27.512-19.525-24.708-31.811-54.37-35.476-85.648-1.2748-10.879-1.2748-28.719 0-39.598 3.6651-31.278 15.951-60.939 35.476-85.648 6.791-8.5939 6.9004-21.099-0.84904-28.849-7.0102-7.0102-19.061-6.4633-26.035 1.986z"/>
  <path transform="scale(.26458)" d="m37.795 0c-20.939 0-37.795 16.856-37.795 37.795v458.91c0 20.939 16.856 37.795 37.795 37.795h302.36c20.939 0 37.795-16.856 37.795-37.795v-458.91c0-20.939-16.856-37.795-37.795-37.795zm-0.01367 20.787a17.008 17.008 0 0 1 2e-3 0 17.008 17.008 0 0 1 0.01172 0 17.008 17.008 0 0 1 17.008 17.008 17.008 17.008 0 0 1-17.008 17.008 17.008 17.008 0 0 1-17.008-17.008 17.008 17.008 0 0 1 16.994-17.008zm302.36 0a17.008 17.008 0 0 1 0.0137 0 17.008 17.008 0 0 1 17.008 17.008 17.008 17.008 0 0 1-17.008 17.008 17.008 17.008 0 0 1-17.008-17.008 17.008 17.008 0 0 1 16.994-17.008zm-151.34 25.625a60.472 60.472 0 0 1 2e-3 0 60.472 60.472 0 0 1 0.17187 0 60.472 60.472 0 0 1 60.473 60.473 60.472 60.472 0 0 1-60.473 60.473 60.472 60.472 0 0 1-60.473-60.473 60.472 60.472 0 0 1 60.299-60.473zm0.17383 153.6a147.4 147.4 0 0 1 147.4 147.4 147.4 147.4 0 0 1-147.4 147.4 147.4 147.4 0 0 1-147.4-147.4 147.4 147.4 0 0 1 147.4-147.4zm-151.2 279.69a17.008 17.008 0 0 1 2e-3 0 17.008 17.008 0 0 1 0.01172 0 17.008 17.008 0 0 1 17.008 17.008 17.008 17.008 0 0 1-17.008 17.008 17.008 17.008 0 0 1-17.008-17.008 17.008 17.008 0 0 1 16.994-17.008zm302.36 0a17.008 17.008 0 0 1 0.0137 0 17.008 17.008 0 0 1 17.008 17.008 17.008 17.008 0 0 1-17.008 17.008 17.008 17.008 0 0 1-17.008-17.008 17.008 17.008 0 0 1 16.994-17.008z" stroke-width="3.7795"/>
  <circle cx="50" cy="28.28" r="7.5"/>
  <path transform="scale(.26458)" d="m188.98 234.03a113.39 113.39 0 0 0-113.39 113.38 113.39 113.39 0 0 0 113.39 113.39 113.39 113.39 0 0 0 113.38-113.39 113.39 113.39 0 0 0-113.38-113.38zm0 79.369a34.016 34.016 0 0 1 34.016 34.016 34.016 34.016 0 0 1-34.016 34.016 34.016 34.016 0 0 1-34.016-34.016 34.016 34.016 0 0 1 34.016-34.016z"/>
  <path d="m55.663-12.334c0.68217-1.7938 0.97839-3.4238 1.0422-4.9496 0.19297-4.6111-1.7361-8.2709-1.5484-12.623 0.48053-11.141 12.529-19.405 24.523-21.212 13.502-2.0341 27.931-0.58658 31.215-0.38083 6.7581 0.42332 13.728-0.75719 18.864-5.13-3.3351 11.547-10.307 28.032-25.386 38.315-20.306 13.848-45.171 8.1027-44.937 7.7261 12.027-33.405 44.474-27.558 56.132-33.269-29.579 1.662-44.677 2.4061-59.906 31.524z"/>
  <path d="m44.032-14.057c6.3403-20.035-6.4599-34.91-23.713-37.061-13.502-2.0341-28.682-0.03203-31.934 0.48083-9.0559 1.4286-16.457-1.6189-18.146-5.9916-1.2604 3.3612 10.594 25.016 25.386 38.315 18.277 16.433 45.171 8.1027 44.937 7.7261-12.027-33.405-44.474-27.558-56.132-33.269 29.579 1.662 44.372 0.68283 59.601 29.801z"/>
 </g>
</svg>
